<?xml version="1.0" encoding="UTF-8" standalone="no"?>
<!DOCTYPE svg PUBLIC "-//W3C//DTD SVG 1.1//EN" "http://www.w3.org/Graphics/SVG/1.1/DTD/svg11.dtd">
<svg width="100%" height="100%" viewBox="0 0 640 573" version="1.1" xmlns="http://www.w3.org/2000/svg" xmlns:xlink="http://www.w3.org/1999/xlink" xml:space="preserve" xmlns:serif="http://www.serif.com/" style="fill-rule:evenodd;clip-rule:evenodd;stroke-linejoin:round;stroke-miterlimit:2;">
    <g transform="matrix(1,0,0,1,-0.001439,0.000072)">
        <path d="M78.652,2.334C93.864,-0.893 124.682,0.167 141.527,0.165L242.447,0.163L457.832,0.167C495.804,0.165 533.904,0.042 571.884,0.357C577.172,0.401 581.724,1.03 586.854,2.379C602.904,6.428 617.942,17.242 627.189,30.948C632.702,39.235 636.444,48.568 638.192,58.365C639.864,67.668 640.779,154.812 638.852,164.333C638.305,165.057 614.447,173.822 609.145,177.256C591.393,188.591 578.912,206.56 574.495,227.155C570.535,246.626 574.623,266.87 585.82,283.28C599.17,303.112 616.51,312.579 639.408,317.056L639.461,384.796C639.491,405.998 641.718,426.646 631.151,445.898C621.701,463.223 605.583,475.936 586.533,481.088C572.5,484.943 517.518,483.345 498.85,483.353L253.27,483.398L186.64,483.323C133.142,483.27 135.91,480.053 96.243,515.663L54.13,553.335C47.561,559.185 36.997,569.782 28.759,572.003C16.88,575.198 2.481,566.175 1.208,553.598C-0.777,533.986 0.289,513.578 0.274,493.808L0.231,359.146L0.239,179.058L0.244,123.103C0.255,111.878 -0.147,99.43 1.008,88.322C5.324,46.821 37.852,10.91 78.652,2.334Z" style="fill:rgb(0,82,230);fill-rule:nonzero;"/>
        <g transform="matrix(1,0,0,1,240,67)">
            <path d="M48.286,335.873C48.95,335.843 49.616,335.813 50.282,335.806C108.188,334.816 169.335,335.708 227.498,335.686L285.338,335.686C320.123,335.701 346.013,330.264 343.89,377.446C337.763,377.941 329.573,377.791 323.258,377.851L129.128,377.904C94.913,377.896 58.867,378.421 24.811,377.641C23.304,357.511 27.998,342.646 48.287,335.873L48.286,335.873Z" style="fill:rgb(248,250,253);fill-rule:nonzero;"/>
        </g>
        <g transform="matrix(1,0,0,1,240,67)">
            <path d="M154.296,118.619C168.104,118.09 182.196,118.589 196.026,118.275C207.921,118.006 228.614,116.925 228.156,134.08C227.984,139.097 225.809,143.836 222.126,147.249C215.316,153.662 206.706,151.827 197.181,151.677C197.459,160.96 197.256,170.12 197.114,179.399C258.389,186.066 305.857,225.447 319.709,287.055C321.089,293.182 323.482,312.064 320.002,317.134C314.212,320.314 229.552,318.964 216.622,318.942L104.249,318.972C94.534,318.972 60.249,319.617 52.006,318.222C49.745,316.564 48.293,315.117 48.265,312.117C47.982,282.317 61.127,249.776 79.517,227.935C102.959,200.048 136.499,182.594 172.792,179.398C173.144,169.871 173.04,161.262 172.882,151.755C161.992,151.897 149.37,153.838 143.655,142.237C138.315,131.393 144.96,123.21 154.298,118.617L154.296,118.619Z" style="fill:rgb(248,250,253);fill-rule:nonzero;"/>
        </g>
        <g transform="matrix(1.259843,0,0,1.268156,-407.511418,-147.934793)">
            <path d="M541.901,216.361C550.148,216.361 556.833,223.046 556.834,231.293L556.834,231.295C556.834,235.291 555.247,239.123 552.421,241.948C549.596,244.773 545.763,246.361 541.768,246.361L383.553,246.361C375.286,246.361 368.584,239.659 368.584,231.392L368.584,231.343C368.584,227.37 370.162,223.559 372.972,220.749C375.782,217.939 379.592,216.361 383.566,216.361L541.902,216.361L541.901,216.361Z" style="fill:rgb(235,235,235);"/>
        </g>
        <g transform="matrix(1.259843,0,0,1.268156,-407.511418,-142.934793)">
            <path d="M541.901,264.361C550.148,264.361 556.833,271.046 556.834,279.293L556.834,279.295C556.834,283.291 555.247,287.123 552.421,289.948C549.596,292.773 545.763,294.361 541.768,294.361L445.803,294.361C437.536,294.361 430.834,287.659 430.834,279.392L430.834,279.343C430.834,275.37 432.412,271.559 435.222,268.749C438.032,265.939 441.842,264.361 445.816,264.361L541.902,264.361L541.901,264.361Z" style="fill:rgb(235,235,235);"/>
        </g>
        <g transform="matrix(1.259843,0,0,1.268156,-407.511418,-142.934793)">
            <path d="M396.401,264.361C404.648,264.361 411.333,271.046 411.334,279.293L411.334,279.295C411.334,283.291 409.747,287.123 406.921,289.948C404.096,292.773 400.263,294.361 396.268,294.361L381.303,294.361C373.036,294.361 366.334,287.659 366.334,279.392L366.334,279.343C366.334,275.37 367.912,271.559 370.722,268.749C373.532,265.939 377.342,264.361 381.316,264.361L396.402,264.361L396.401,264.361Z" style="fill:rgb(235,235,235);"/>
        </g>
        <g transform="matrix(1.259843,0,0,1.268156,-407.511418,-139.934793)">
            <path d="M541.901,160.111C550.148,160.111 556.833,166.796 556.834,175.043L556.834,175.045C556.834,179.041 555.247,182.873 552.421,185.698C549.596,188.523 545.763,190.111 541.768,190.111L383.553,190.111C375.286,190.111 368.584,183.409 368.584,175.142L368.584,175.093C368.584,171.12 370.162,167.309 372.972,164.499C375.782,161.689 379.592,160.111 383.566,160.111L541.902,160.111L541.901,160.111Z" style="fill:rgb(235,235,235);"/>
        </g>
    </g>
</svg>
